<svg width="27" height="28" viewBox="0 0 27 28" fill="none" xmlns="http://www.w3.org/2000/svg">
<g clip-path="url(#clip0)">
<path d="M21.3132 11.6521H14.8686L20.4319 1.86364C20.5696 1.62254 20.5688 1.32668 20.4297 1.08639C20.2898 0.846294 20.0334 0.698669 19.7558 0.698669H10.4117C10.0765 0.698669 9.77902 0.913211 9.67337 1.23097L5.0013 15.2991C4.92141 15.5363 4.96176 15.7979 5.10776 16.0009C5.25458 16.2041 5.4896 16.3241 5.73963 16.3241H12.3456L8.13893 26.1925C7.98826 26.5431 8.11459 26.9515 8.43702 27.1559C8.75417 27.3587 9.18021 27.3053 9.43612 27.0162L21.895 12.948C22.0988 12.7191 22.149 12.3912 22.0235 12.1122C21.898 11.8323 21.6198 11.6521 21.3132 11.6521Z" fill="#096FF8"/>
</g>
<defs>
<clipPath id="clip0">
<rect width="26.5789" height="26.5789" fill="white" transform="translate(0.236816 0.698669)"/>
</clipPath>
</defs>
</svg>
