<svg width="28" height="28" viewBox="0 0 28 28" fill="none" xmlns="http://www.w3.org/2000/svg">
<g clip-path="url(#clip0)">
<path d="M20.216 12.8807C16.2469 12.8807 13.0176 16.11 13.0176 20.0792C13.0176 24.0483 16.2469 27.2776 20.216 27.2776C24.1852 27.2776 27.4145 24.0483 27.4145 20.0792C27.4145 16.11 24.1852 12.8807 20.216 12.8807ZM23.3357 18.6849L19.7365 22.8378C19.5848 23.0117 19.3688 23.1158 19.1385 23.1236C19.1285 23.1236 19.1186 23.1236 19.1086 23.1236C18.8882 23.1236 18.6767 23.0361 18.5216 22.8799L16.5836 20.9419C16.2591 20.6174 16.2591 20.0914 16.5836 19.7669C16.9081 19.4424 17.4341 19.4424 17.7586 19.7669L19.0665 21.0737L22.081 17.5951C22.3811 17.2496 22.905 17.2109 23.2527 17.511C23.5982 17.8144 23.6359 18.3383 23.3357 18.6849Z" fill="#096FF8"/>
<path d="M20.5039 7.2438L11.1569 0.809485C10.9465 0.665515 10.6586 0.665515 10.4482 0.809485L1.10124 7.2438C0.93512 7.35455 0.835449 7.55389 0.835449 7.75323V19.1822C0.835449 19.9796 1.48885 20.6329 2.28622 20.6329H4.98841V10.4554C4.98841 10.1121 5.27635 9.83525 5.60858 9.83525H15.9965C16.3288 9.83525 16.6167 10.1121 16.6167 10.4554V11.3857C17.7242 10.9206 18.9424 10.6658 20.2159 10.6658C20.4042 10.6658 20.5814 10.6658 20.7697 10.6769V7.75323C20.7697 7.55389 20.67 7.35455 20.5039 7.2438Z" fill="#096FF8"/>
<path d="M6.23975 11.0755V12.7367H14.3242C14.6564 12.4709 14.9997 12.2273 15.3652 12.0168V11.0755H6.23975Z" fill="black"/>
<path d="M6.23975 13.9881V16.0591H11.7106C12.0539 15.306 12.508 14.6083 13.0395 13.9881H6.23975Z" fill="black"/>
<path d="M6.23975 11.0755V12.7367H14.3242C14.6564 12.4709 14.9997 12.2273 15.3652 12.0168V11.0755H6.23975Z" fill="#096FF8"/>
<path d="M6.23975 13.9881V16.0591H11.7106C12.0539 15.306 12.508 14.6083 13.0395 13.9881H6.23975Z" fill="#096FF8"/>
<path d="M11.2122 17.3105C11.0129 17.975 10.88 18.6616 10.8246 19.3815H6.23975V17.3105H11.2122Z" fill="#096FF8"/>
</g>
<defs>
<clipPath id="clip0">
<rect width="26.5789" height="26.5789" fill="white" transform="translate(0.835449 0.698669)"/>
</clipPath>
</defs>
</svg>
