<svg width="27" height="28" viewBox="0 0 27 28" fill="none" xmlns="http://www.w3.org/2000/svg">
<path d="M23.338 22.7597C25.2764 20.552 26.4143 17.804 26.6053 14.872H24.2456V13.1041H26.6052C26.4143 10.1722 25.2763 7.4241 23.3379 5.21588L21.7673 6.78704L20.5168 5.53649L22.0874 3.96589C19.8798 2.02761 17.1317 0.889601 14.1998 0.698669V2.91987H12.4318V0.698669C9.49986 0.889601 6.7518 2.02761 4.5442 3.966L6.21259 5.63439L4.96204 6.88495L3.29364 5.21598C1.35531 7.4241 0.217299 10.1722 0.0263672 13.1041H2.38607V14.8721H0.0263672C0.217299 17.804 1.35531 20.5521 3.29364 22.7597L4.96204 21.0913L6.21259 22.3419L4.5442 24.0103C6.75185 25.948 9.49991 27.0866 12.4318 27.2776V24.9179H14.1998V27.2775C17.1318 27.0866 19.8798 25.9486 22.0881 24.0102L20.4191 22.3418L21.6696 21.0913L23.338 22.7597ZM18.9297 20.716L12.4595 14.3606L12.4317 7.50789L14.1997 7.50083L14.2245 13.6157L20.1685 19.4548L18.9297 20.716Z" fill="#096FF8"/>
</svg>
