<svg width="29" height="29" viewBox="0 0 29 29" fill="none" xmlns="http://www.w3.org/2000/svg">
<path d="M4.72604 3.55005C4.57153 3.54989 4.41851 3.58021 4.27573 3.63927C4.13295 3.69832 4.00322 3.78496 3.89397 3.89421C3.78471 4.00347 3.69808 4.1332 3.63902 4.27597C3.57997 4.41875 3.54965 4.57177 3.54981 4.72628V23.6738C3.54981 24.3235 4.07639 24.85 4.72604 24.85H14.9264V16.6022H12.1503V13.3859H14.9276V11.0169C14.9276 8.26563 16.6067 6.76753 19.0609 6.76753C20.2372 6.76753 21.2466 6.85628 21.5424 6.89415V9.76965L19.8396 9.77083C18.5048 9.77083 18.2468 10.4039 18.2468 11.3352V13.3871H21.43L21.0158 16.6034H18.2468V24.85H23.6736C23.9855 24.85 24.2847 24.7261 24.5053 24.5055C24.7259 24.285 24.8498 23.9858 24.8498 23.6738V4.72628C24.85 4.57177 24.8196 4.41875 24.7606 4.27597C24.7015 4.1332 24.6149 4.00347 24.5056 3.89421C24.3964 3.78496 24.2667 3.69832 24.1239 3.63927C23.9811 3.58021 23.8281 3.54989 23.6736 3.55005H4.72604Z" fill="#ACACAC"/>
</svg>
