<svg width="28" height="28" viewBox="0 0 28 28" fill="none" xmlns="http://www.w3.org/2000/svg">
<path d="M14.0161 3.5C16.8674 3.5 17.2244 3.51167 18.3444 3.563C19.4621 3.61433 20.2251 3.79167 20.8936 4.05183C21.5843 4.32017 22.1699 4.67833 22.7533 5.26283C23.3366 5.84617 23.6959 6.43183 23.9643 7.1225C24.2244 7.78983 24.4018 8.55283 24.4519 9.6705C24.5033 10.7905 24.5161 11.1487 24.5161 14C24.5161 16.8513 24.5044 17.2083 24.4519 18.3283C24.4018 19.4472 24.2244 20.2102 23.9643 20.8775C23.7006 21.5781 23.2874 22.2127 22.7533 22.7372C22.1699 23.3205 21.5843 23.681 20.8936 23.9493C20.2251 24.2083 19.4621 24.3857 18.3444 24.437C17.2244 24.4883 16.8674 24.5 14.0161 24.5C11.1636 24.5 10.8066 24.4883 9.68661 24.437C8.56895 24.3857 7.80595 24.2083 7.13745 23.9493C6.43677 23.6853 5.80213 23.2717 5.27778 22.7372C4.69445 22.1538 4.33511 21.5682 4.06678 20.8775C3.80661 20.2102 3.62928 19.4472 3.57911 18.3295C3.52778 17.2095 3.51611 16.8513 3.51611 14C3.51611 11.1487 3.52778 10.7917 3.57911 9.67167C3.62928 8.55283 3.80661 7.78983 4.06678 7.1225C4.33028 6.42151 4.74356 5.78647 5.27778 5.26167C5.86111 4.67833 6.44678 4.319 7.13745 4.05067C7.80595 3.7905 8.56895 3.61317 9.68661 3.56183C10.8066 3.51167 11.1636 3.5 14.0149 3.5H14.0161ZM14.0161 5.39233C11.2114 5.39233 10.8801 5.40283 9.77295 5.453C8.74861 5.49967 8.19328 5.67117 7.82345 5.81467C7.33345 6.00483 6.98345 6.23233 6.61595 6.59983C6.24845 6.96733 6.02095 7.31733 5.83078 7.80733C5.68611 8.17717 5.51578 8.73367 5.46911 9.75683C5.41778 10.8652 5.40728 11.1965 5.40728 14C5.40728 16.8035 5.41895 17.136 5.46911 18.2432C5.51578 19.2663 5.68611 19.8228 5.83078 20.1927C6.02095 20.6827 6.24845 21.0327 6.61595 21.4002C6.98345 21.7677 7.33228 21.9952 7.82345 22.1853C8.19328 22.3288 8.74861 22.5003 9.77178 22.547C10.8801 22.5972 11.2114 22.6077 14.0161 22.6077C16.8196 22.6077 17.1509 22.5972 18.2581 22.547C19.2824 22.5003 19.8378 22.3288 20.2076 22.1853C20.6976 21.9952 21.0476 21.7677 21.4151 21.4002C21.7826 21.0327 22.0101 20.6827 22.2014 20.1927C22.3449 19.8228 22.5164 19.2663 22.5631 18.2432C22.6133 17.1348 22.6238 16.8035 22.6238 14C22.6238 11.1965 22.6121 10.864 22.5619 9.75683C22.5153 8.73367 22.3449 8.17717 22.2003 7.8085C22.0322 7.35196 21.7639 6.93894 21.4151 6.59983C21.0763 6.25119 20.6637 5.9829 20.2076 5.81467C19.8378 5.67117 19.2824 5.49967 18.2593 5.453C17.1509 5.40283 16.8196 5.39233 14.0161 5.39233ZM20.8808 8.39533C20.8808 8.72951 20.748 9.04999 20.5117 9.28629C20.2754 9.52258 19.955 9.65533 19.6208 9.65533C19.2866 9.65533 18.9661 9.52258 18.7298 9.28629C18.4935 9.04999 18.3608 8.72951 18.3608 8.39533C18.3608 8.06116 18.4935 7.74067 18.7298 7.50438C18.9661 7.26808 19.2866 7.13533 19.6208 7.13533C19.955 7.13533 20.2754 7.26808 20.5117 7.50438C20.748 7.74067 20.8808 8.06116 20.8808 8.39533ZM14.0161 8.60767C15.4462 8.60767 16.8178 9.17579 17.8291 10.187C18.8403 11.1983 19.4084 12.5699 19.4084 14C19.4084 15.4301 18.8403 16.8017 17.8291 17.813C16.8178 18.8242 15.4462 19.3923 14.0161 19.3923C12.586 19.3923 11.2144 18.8242 10.2032 17.813C9.1919 16.8017 8.62378 15.4301 8.62378 14C8.62378 12.5699 9.1919 11.1983 10.2032 10.187C11.2144 9.17579 12.586 8.60767 14.0161 8.60767ZM14.0161 17.5C14.9444 17.5 15.8346 17.1313 16.491 16.4749C17.1474 15.8185 17.5161 14.9283 17.5161 14C17.5161 13.0717 17.1474 12.1815 16.491 11.5251C15.8346 10.8687 14.9444 10.5 14.0161 10.5C13.0879 10.5 12.1976 10.8687 11.5412 11.5251C10.8849 12.1815 10.5161 13.0717 10.5161 14C10.5161 14.9283 10.8849 15.8185 11.5412 16.4749C12.1976 17.1313 13.0879 17.5 14.0161 17.5Z" fill="#ACACAC"/>
</svg>
