<svg width="28" height="28" viewBox="0 0 28 28" fill="none" xmlns="http://www.w3.org/2000/svg">
<path d="M26 6.36856C25.1447 6.74375 24.2333 6.99244 23.2831 7.11319C24.2606 6.52956 25.0067 5.61244 25.3574 4.507C24.4461 5.05037 23.4398 5.43419 22.3674 5.64838C21.5021 4.72694 20.2687 4.15625 18.9232 4.15625C16.3127 4.15625 14.2111 6.27513 14.2111 8.87269C14.2111 9.24644 14.2427 9.60581 14.3203 9.94794C10.4002 9.75675 6.93156 7.87794 4.60137 5.01588C4.19456 5.72169 3.95594 6.52956 3.95594 7.39925C3.95594 9.03225 4.79688 10.4798 6.05037 11.3179C5.29281 11.3035 4.54962 11.0836 3.92 10.7371C3.92 10.7515 3.92 10.7702 3.92 10.7889C3.92 13.0802 5.55444 14.9835 7.69775 15.4219C7.31394 15.5269 6.89562 15.5772 6.4615 15.5772C6.15963 15.5772 5.85487 15.5599 5.56881 15.4967C6.17975 17.364 7.91338 18.7368 9.97475 18.7814C8.3705 20.0363 6.33356 20.7924 4.12844 20.7924C3.74175 20.7924 3.37087 20.7752 3 20.7277C5.08869 22.0747 7.56406 22.8438 10.2335 22.8438C18.9102 22.8438 23.654 15.6562 23.654 9.42613C23.654 9.21769 23.6468 9.01644 23.6367 8.81663C24.5726 8.1525 25.3589 7.32306 26 6.36856Z" fill="#ACACAC"/>
</svg>
