<svg width="708" height="244" viewBox="0 0 708 244" fill="none" xmlns="http://www.w3.org/2000/svg">
<path d="M98.384 98.8261H44.0227L28.8482 123.866H0L75.5389 7.01131H102.219L130.901 123.866H103.887L98.384 98.8261ZM93.8816 78.293L84.0433 33.2203L56.5291 78.293H93.8816ZM166.023 0H192.036L167.357 123.866H141.344L166.023 0ZM216.179 0H242.193L217.513 123.866H191.5L216.179 0ZM274.339 125.202C266.557 125.202 259.165 124.367 252.161 122.698C245.269 120.917 239.877 118.636 235.986 115.854L245.991 96.9898C249.882 99.5495 254.607 101.608 260.165 103.166C265.835 104.724 271.504 105.504 277.174 105.504C283.066 105.504 287.457 104.78 290.347 103.333C293.238 101.775 294.683 99.6051 294.683 96.8228C294.683 94.597 293.404 92.9833 290.848 91.9817C288.291 90.9801 284.177 89.9228 278.508 88.8099C272.06 87.5857 266.724 86.2502 262.5 84.8035C258.386 83.3567 254.773 81.0196 251.661 77.7921C248.659 74.4534 247.158 69.9462 247.158 64.2703C247.158 54.3655 251.272 46.6308 259.498 41.0662C267.836 35.5017 278.73 32.7194 292.182 32.7194C298.407 32.7194 304.466 33.3872 310.358 34.7227C316.25 36.0582 321.252 37.8945 325.365 40.2316L316.027 59.2623C308.69 54.6993 299.852 52.4179 289.514 52.4179C283.844 52.4179 279.508 53.2526 276.507 54.9219C273.617 56.5913 272.171 58.7058 272.171 61.2655C272.171 63.6026 273.45 65.3276 276.007 66.4405C278.564 67.4421 282.843 68.555 288.847 69.7792C295.183 71.0034 300.352 72.3389 304.355 73.7857C308.468 75.1212 312.025 77.4026 315.027 80.6301C318.028 83.8575 319.529 88.2535 319.529 93.818C319.529 103.834 315.305 111.569 306.856 117.022C298.518 122.475 287.679 125.202 274.339 125.202ZM365.594 92.1486C365.372 93.039 365.261 94.2632 365.261 95.8212C365.261 101.608 368.429 104.502 374.766 104.502C378.212 104.502 381.714 103.445 385.271 101.33L389.107 119.86C383.326 123.421 375.877 125.202 366.762 125.202C358.313 125.202 351.532 122.976 346.418 118.525C341.304 114.073 338.747 107.952 338.747 100.162C338.747 97.9357 339.025 95.3204 339.581 92.3156L346.751 56.0905H332.911L336.913 36.0582H350.753L355.089 14.1896H381.102L376.767 36.0582H399.112L395.11 56.0905H372.765L365.594 92.1486ZM508.83 34.0549L490.987 123.866H466.308L467.976 115.019C460.527 121.808 451.356 125.202 440.461 125.202C433.458 125.202 427.01 123.588 421.118 120.361C415.226 117.133 410.502 112.515 406.944 106.505C403.498 100.384 401.775 93.2059 401.775 84.9704C401.775 75.0655 403.943 66.1623 408.278 58.2606C412.725 50.2477 418.728 44.0154 426.287 39.5638C433.847 35.0009 442.185 32.7194 451.3 32.7194C465.085 32.7194 474.812 37.2267 480.482 46.2413L482.817 34.0549H508.83ZM448.466 103.667C453.579 103.667 458.137 102.443 462.139 99.9946C466.141 97.435 469.254 93.9293 471.477 89.4777C473.701 85.026 474.812 79.9067 474.812 74.1196C474.812 67.9986 472.978 63.1574 469.31 59.5961C465.752 56.0348 460.75 54.2542 454.302 54.2542C449.188 54.2542 444.63 55.534 440.628 58.0937C436.626 60.5421 433.513 63.9921 431.29 68.4437C429.067 72.8954 427.955 78.0147 427.955 83.8018C427.955 89.9228 429.734 94.764 433.291 98.3253C436.96 101.887 442.018 103.667 448.466 103.667ZM550.423 92.1486C550.201 93.039 550.089 94.2632 550.089 95.8212C550.089 101.608 553.258 104.502 559.594 104.502C563.04 104.502 566.542 103.445 570.1 101.33L573.935 119.86C568.154 123.421 560.706 125.202 551.59 125.202C543.141 125.202 536.36 122.976 531.246 118.525C526.133 114.073 523.576 107.952 523.576 100.162C523.576 97.9357 523.854 95.3204 524.409 92.3156L531.58 56.0905H517.739L521.741 36.0582H535.582L539.917 14.1896H565.931L561.595 36.0582H583.94L579.938 56.0905H557.593L550.423 92.1486ZM682.152 72.2833C682.152 76.401 681.651 80.9639 680.651 85.972H611.949C612.838 98.214 620.565 104.335 635.128 104.335C639.685 104.335 644.021 103.612 648.134 102.165C652.359 100.718 656.027 98.6591 659.14 95.9882L669.979 113.183C664.976 117.189 659.251 120.194 652.803 122.197C646.356 124.2 639.574 125.202 632.459 125.202C623.233 125.202 615.117 123.588 608.114 120.361C601.221 117.022 595.885 112.292 592.105 106.171C588.437 100.05 586.603 92.9833 586.603 84.9704C586.603 75.0655 588.826 66.1623 593.273 58.2606C597.831 50.2477 604.112 44.0154 612.116 39.5638C620.12 35.0009 629.236 32.7194 639.463 32.7194C648.134 32.7194 655.638 34.3332 661.975 37.5606C668.422 40.788 673.369 45.4066 676.816 51.4163C680.373 57.426 682.152 64.3816 682.152 72.2833ZM638.296 52.251C632.182 52.251 627.012 53.9203 622.788 57.259C618.563 60.4865 615.562 64.9937 613.783 70.7808H658.306C658.306 64.9937 656.472 60.4865 652.803 57.259C649.246 53.9203 644.41 52.251 638.296 52.251Z" fill="#096FF8"/>
<path d="M448.111 222.713C437.081 222.713 427.972 219.044 420.782 211.707C413.592 204.369 409.997 195.32 409.997 184.558C409.997 173.727 413.592 164.677 420.782 157.409C427.972 150.072 437.081 146.403 448.111 146.403C454.742 146.403 460.85 147.976 466.434 151.12C472.088 154.195 476.486 158.387 479.628 163.699L467.167 170.931C465.352 167.647 462.77 165.096 459.419 163.279C456.068 161.392 452.299 160.449 448.111 160.449C440.99 160.449 435.232 162.685 430.834 167.158C426.506 171.63 424.342 177.43 424.342 184.558C424.342 191.616 426.506 197.382 430.834 201.854C435.232 206.326 440.99 208.562 448.111 208.562C452.299 208.562 456.068 207.654 459.419 205.837C462.839 203.95 465.422 201.399 467.167 198.185L479.628 205.417C476.486 210.729 472.123 214.956 466.539 218.101C460.955 221.176 454.812 222.713 448.111 222.713ZM527.971 168.835H541.478V221.246H527.971V215.062C523.922 220.163 518.233 222.713 510.903 222.713C503.923 222.713 497.92 220.058 492.894 214.747C487.938 209.366 485.46 202.797 485.46 195.04C485.46 187.283 487.938 180.75 492.894 175.439C497.92 170.058 503.923 167.367 510.903 167.367C518.233 167.367 523.922 169.918 527.971 175.019V168.835ZM503.051 205.732C505.773 208.458 509.228 209.82 513.417 209.82C517.605 209.82 521.06 208.458 523.782 205.732C526.575 202.937 527.971 199.373 527.971 195.04C527.971 190.708 526.575 187.178 523.782 184.453C521.06 181.658 517.605 180.26 513.417 180.26C509.228 180.26 505.773 181.658 503.051 184.453C500.328 187.178 498.967 190.708 498.967 195.04C498.967 199.373 500.328 202.937 503.051 205.732ZM567.233 177.849C568.49 174.495 570.549 171.98 573.411 170.303C576.343 168.625 579.589 167.787 583.149 167.787V182.881C579.03 182.392 575.33 183.23 572.049 185.397C568.839 187.563 567.233 191.162 567.233 196.194V221.246H553.726V168.835H567.233V177.849ZM629.208 168.835H642.401V218.73C642.401 226.836 639.713 233.021 634.338 237.283C629.034 241.547 622.612 243.678 615.073 243.678C609.419 243.678 604.427 242.595 600.1 240.428C595.842 238.262 592.561 235.082 590.257 230.889L601.775 224.285C604.427 229.177 609 231.623 615.491 231.623C619.75 231.623 623.1 230.505 625.544 228.269C627.987 226.033 629.208 222.853 629.208 218.73V213.069C625.23 218.381 619.645 221.036 612.455 221.036C605.056 221.036 598.843 218.45 593.818 213.279C588.861 208.038 586.383 201.679 586.383 194.201C586.383 186.794 588.896 180.47 593.922 175.229C598.948 169.988 605.126 167.367 612.455 167.367C619.645 167.367 625.23 170.023 629.208 175.334V168.835ZM603.974 204.579C606.766 207.234 610.291 208.562 614.549 208.562C618.808 208.562 622.298 207.234 625.02 204.579C627.812 201.853 629.208 198.394 629.208 194.201C629.208 190.079 627.812 186.689 625.02 184.034C622.298 181.308 618.808 179.946 614.549 179.946C610.291 179.946 606.766 181.308 603.974 184.034C601.251 186.689 599.89 190.079 599.89 194.201C599.89 198.394 601.251 201.853 603.974 204.579ZM699.255 214.747C693.877 220.058 687.318 222.713 679.569 222.713C671.822 222.713 665.26 220.058 659.885 214.747C654.579 209.366 651.927 202.797 651.927 195.04C651.927 187.283 654.579 180.75 659.885 175.439C665.26 170.058 671.822 167.367 679.569 167.367C687.318 167.367 693.877 170.058 699.255 175.439C704.626 180.75 707.315 187.283 707.315 195.04C707.315 202.797 704.626 209.366 699.255 214.747ZM669.413 205.417C672.136 208.143 675.521 209.506 679.569 209.506C683.618 209.506 687.004 208.143 689.726 205.417C692.446 202.692 693.808 199.233 693.808 195.04C693.808 190.847 692.446 187.388 689.726 184.663C687.004 181.937 683.618 180.575 679.569 180.575C675.521 180.575 672.136 181.937 669.413 184.663C666.761 187.388 665.434 190.847 665.434 195.04C665.434 199.233 666.761 202.692 669.413 205.417Z" fill="#EF3535"/>
</svg>
